<svg version="1.1" xmlns="http://www.w3.org/2000/svg" xmlns:xlink="http://www.w3.org/1999/xlink" width="607" height="114"><defs><clipPath id="ewMXFTLaRazw"><path fill="none" stroke="none" d=" M 0 0 L 607 0 L 607 114 L 0 114 L 0 0 Z"/></clipPath></defs><g transform="scale(1,1)" clip-path="url(#ewMXFTLaRazw)"><g><path fill="none" stroke="rgb(0,0,0)" paint-order="fill stroke markers" d=" M 0.5 56.5 L 605.5 56.5" stroke-opacity="1" stroke-miterlimit="10"/><path fill="none" stroke="rgb(0,0,0)" paint-order="fill stroke markers" d=" M 606.5 56.5 L 600.5 50.5" stroke-opacity="1" stroke-miterlimit="10"/><path fill="none" stroke="rgb(0,0,0)" paint-order="fill stroke markers" d=" M 606.5 56.5 L 600.5 62.5" stroke-opacity="1" stroke-miterlimit="10"/><path fill="none" stroke="rgb(0,0,0)" paint-order="fill stroke markers" d=" M 49.5 56.5 L 49.5 59.5" stroke-opacity="1" stroke-miterlimit="10"/><path fill="none" stroke="rgb(0,0,0)" paint-order="fill stroke markers" d=" M 99.5 56.5 L 99.5 59.5" stroke-opacity="1" stroke-miterlimit="10"/><path fill="none" stroke="rgb(0,0,0)" paint-order="fill stroke markers" d=" M 149.5 56.5 L 149.5 59.5" stroke-opacity="1" stroke-miterlimit="10"/><path fill="none" stroke="rgb(0,0,0)" paint-order="fill stroke markers" d=" M 199.5 56.5 L 199.5 59.5" stroke-opacity="1" stroke-miterlimit="10"/><path fill="none" stroke="rgb(0,0,0)" paint-order="fill stroke markers" d=" M 249.5 56.5 L 249.5 59.5" stroke-opacity="1" stroke-miterlimit="10"/><path fill="none" stroke="rgb(0,0,0)" paint-order="fill stroke markers" d=" M 299.5 56.5 L 299.5 59.5" stroke-opacity="1" stroke-miterlimit="10"/><path fill="none" stroke="rgb(0,0,0)" paint-order="fill stroke markers" d=" M 349.5 56.5 L 349.5 59.5" stroke-opacity="1" stroke-miterlimit="10"/><path fill="none" stroke="rgb(0,0,0)" paint-order="fill stroke markers" d=" M 399.5 56.5 L 399.5 59.5" stroke-opacity="1" stroke-miterlimit="10"/><path fill="none" stroke="rgb(0,0,0)" paint-order="fill stroke markers" d=" M 449.5 56.5 L 449.5 59.5" stroke-opacity="1" stroke-miterlimit="10"/><path fill="none" stroke="rgb(0,0,0)" paint-order="fill stroke markers" d=" M 499.5 56.5 L 499.5 59.5" stroke-opacity="1" stroke-miterlimit="10"/><path fill="none" stroke="rgb(0,0,0)" paint-order="fill stroke markers" d=" M 549.5 56.5 L 549.5 59.5" stroke-opacity="1" stroke-miterlimit="10"/><path fill="none" stroke="rgb(0,153,255)" paint-order="fill stroke markers" d=" M 149.75000000000034 56.24999999998647 L 449.7499999999998 56.24999999998647" stroke-opacity="1" stroke-linecap="round" stroke-linejoin="round" stroke-miterlimit="10" stroke-width="2.5"/><g transform="scale(27,27)"><g transform="translate(5.407407407407407,2.3425925925925926)"><path fill="rgb(0,153,255)" stroke="none" paint-order="stroke fill markers" d=" M 0.331 0.24 L 0.331 0.24 Q 0.331 0.25 0.321 0.25 Q 0.309 0.25 0.268 0.209 Q 0.20600000000000002 0.147 0.165 0.062 Q 0.099 -0.074 0.099 -0.25 Q 0.099 -0.419 0.162 -0.555 Q 0.214 -0.666 0.294 -0.733 Q 0.315 -0.75 0.321 -0.75 Q 0.331 -0.75 0.331 -0.74 Q 0.331 -0.735 0.318 -0.723 Q 0.157 -0.559 0.157 -0.25 Q 0.157 0.058 0.314 0.218 Q 0.331 0.23500000000000001 0.331 0.24 Z"/></g></g><g transform="scale(27,27)"><g transform="translate(16.40740740740741,2.3425925925925926)"><path fill="rgb(0,153,255)" stroke="none" paint-order="stroke fill markers" d=" M 0.289 -0.25 L 0.289 -0.25 Q 0.289 -0.081 0.226 0.055 Q 0.17400000000000002 0.166 0.094 0.233 Q 0.073 0.25 0.067 0.25 Q 0.057 0.25 0.057 0.24 Q 0.057 0.23500000000000001 0.07 0.223 Q 0.231 0.059000000000000004 0.231 -0.25 Q 0.231 -0.555 0.081 -0.712 L 0.076 -0.717 Q 0.057 -0.735 0.057 -0.74 Q 0.057 -0.75 0.067 -0.75 Q 0.079 -0.75 0.12 -0.709 Q 0.182 -0.647 0.223 -0.562 Q 0.289 -0.426 0.289 -0.25 Z"/></g></g><path fill="rgb(244,0,153)" stroke="none" paint-order="stroke fill markers" d=" M 304.75000000000006 56.24999999998647 C 304.75000000000006 59.011423749140434 302.511423749154 61.24999999998647 299.75000000000006 61.24999999998647 C 296.9885762508461 61.24999999998647 294.75000000000006 59.011423749140434 294.75000000000006 56.24999999998647 C 294.75000000000006 53.4885762508325 296.9885762508461 51.24999999998647 299.75000000000006 51.24999999998647 C 302.511423749154 51.24999999998647 304.75000000000006 53.4885762508325 304.75000000000006 56.24999999998647 Z" fill-opacity="1"/><path fill="none" stroke="rgb(0,0,0)" paint-order="fill stroke markers" d=" M 304.75000000000006 56.24999999998647 C 304.75000000000006 59.011423749140434 302.511423749154 61.24999999998647 299.75000000000006 61.24999999998647 C 296.9885762508461 61.24999999998647 294.75000000000006 59.011423749140434 294.75000000000006 56.24999999998647 C 294.75000000000006 53.4885762508325 296.9885762508461 51.24999999998647 299.75000000000006 51.24999999998647 C 302.511423749154 51.24999999998647 304.75000000000006 53.4885762508325 304.75000000000006 56.24999999998647 Z" stroke-opacity="1" stroke-linecap="round" stroke-linejoin="round" stroke-miterlimit="10"/><g transform="scale(27,27)"><g transform="translate(10.851851851851851,3.171295740740741)"><path fill="rgb(244,0,153)" stroke="none" paint-order="stroke fill markers" d=" M 0.334 -0.302 L 0.3 -0.165 Q 0.28300000000000003 -0.097 0.28300000000000003 -0.077 Q 0.28300000000000003 -0.025 0.32 -0.014 Q 0.328 -0.011 0.338 -0.011 Q 0.388 -0.011 0.429 -0.061 Q 0.456 -0.093 0.47100000000000003 -0.14200000000000002 Q 0.47400000000000003 -0.153 0.484 -0.153 Q 0.496 -0.153 0.496 -0.14300000000000002 Q 0.496 -0.11800000000000001 0.465 -0.07100000000000001 Q 0.41100000000000003 0.011 0.336 0.011 Q 0.268 0.011 0.23700000000000002 -0.046 Q 0.231 -0.055 0.228 -0.065 Q 0.20400000000000001 -0.017 0.162 0.002 Q 0.14300000000000002 0.011 0.123 0.011 Q 0.063 0.011 0.039 -0.024 Q 0.029 -0.037 0.029 -0.055 Q 0.029 -0.092 0.061 -0.107 Q 0.07200000000000001 -0.113 0.084 -0.113 Q 0.114 -0.113 0.12 -0.088 Q 0.121 -0.083 0.121 -0.078 Q 0.121 -0.044 0.08700000000000001 -0.028 Q 0.081 -0.025 0.074 -0.024 Q 0.095 -0.011 0.124 -0.011 Q 0.177 -0.011 0.20800000000000002 -0.082 Q 0.214 -0.097 0.219 -0.115 Q 0.273 -0.319 0.273 -0.353 Q 0.267 -0.41500000000000004 0.219 -0.42 Q 0.167 -0.42 0.124 -0.367 L 0.124 -0.366 Q 0.124 -0.365 0.123 -0.365 Q 0.108 -0.34500000000000003 0.096 -0.319 Q 0.091 -0.307 0.08700000000000001 -0.295 L 0.085 -0.289 Q 0.083 -0.278 0.07200000000000001 -0.278 Q 0.06 -0.278 0.06 -0.28800000000000003 Q 0.06 -0.313 0.092 -0.36 Q 0.146 -0.442 0.221 -0.442 Q 0.298 -0.442 0.329 -0.366 Q 0.361 -0.428 0.41400000000000003 -0.44 Q 0.424 -0.442 0.434 -0.442 Q 0.493 -0.442 0.517 -0.40900000000000003 Q 0.527 -0.395 0.527 -0.376 Q 0.527 -0.335 0.49 -0.321 Q 0.481 -0.318 0.47300000000000003 -0.318 Q 0.442 -0.318 0.436 -0.34500000000000003 Q 0.435 -0.34900000000000003 0.435 -0.353 Q 0.435 -0.383 0.464 -0.4 Q 0.47300000000000003 -0.405 0.483 -0.40700000000000003 Q 0.462 -0.42 0.433 -0.42 Q 0.365 -0.42 0.337 -0.314 Q 0.335 -0.308 0.334 -0.302 Z"/></g><g transform="translate(11.423379851851852,3.321295740740741) scale(0.7,0.7)"><path fill="rgb(244,0,153)" stroke="none" paint-order="stroke fill markers" d=" M 0.46 -0.32 Q 0.46 -0.17400000000000002 0.423 -0.094 Q 0.364 0.018000000000000002 0.249 0.022 Q 0.158 0.022 0.10300000000000001 -0.05 Q 0.092 -0.063 0.084 -0.079 Q 0.039 -0.162 0.039 -0.32 Q 0.039 -0.467 0.076 -0.547 Q 0.126 -0.659 0.23800000000000002 -0.666 L 0.25 -0.666 Q 0.339 -0.666 0.395 -0.595 L 0.395 -0.594 Q 0.40900000000000003 -0.5760000000000001 0.42 -0.554 Q 0.46 -0.46900000000000003 0.46 -0.32 M 0.249 0 L 0.249 0 Q 0.312 0 0.34600000000000003 -0.061 Q 0.36 -0.088 0.366 -0.125 Q 0.377 -0.189 0.377 -0.332 Q 0.377 -0.47100000000000003 0.367 -0.527 Q 0.34900000000000003 -0.622 0.275 -0.641 Q 0.262 -0.644 0.249 -0.644 Q 0.179 -0.644 0.147 -0.5740000000000001 Q 0.136 -0.55 0.13 -0.516 Q 0.122 -0.462 0.122 -0.332 Q 0.122 -0.181 0.133 -0.121 Q 0.151 -0.025 0.221 -0.004 Q 0.23500000000000001 0 0.249 0 Z"/></g></g><g transform="scale(27,27)"><g transform="translate(8.037037037037036,1.620370925925926)"><path fill="rgb(0,153,255)" stroke="none" paint-order="stroke fill markers" d=" M 0.264 -0.437 Q 0.213 -0.537 0.20600000000000002 -0.581 Q 0.20400000000000001 -0.595 0.20400000000000001 -0.608 Q 0.20400000000000001 -0.687 0.276 -0.706 Q 0.295 -0.711 0.318 -0.711 Q 0.34800000000000003 -0.711 0.4 -0.7000000000000001 Q 0.442 -0.6910000000000001 0.448 -0.681 Q 0.452 -0.676 0.452 -0.667 Q 0.452 -0.644 0.43 -0.632 Q 0.422 -0.627 0.41200000000000003 -0.627 Q 0.399 -0.627 0.357 -0.652 Q 0.316 -0.679 0.28600000000000003 -0.679 Q 0.247 -0.679 0.234 -0.649 Q 0.231 -0.641 0.231 -0.633 Q 0.231 -0.588 0.326 -0.46900000000000003 Q 0.374 -0.406 0.388 -0.364 Q 0.4 -0.326 0.4 -0.28300000000000003 Q 0.4 -0.169 0.34 -0.078 Q 0.281 0.012 0.2 0.012 Q 0.113 0.012 0.069 -0.058 Q 0.042 -0.1 0.042 -0.156 Q 0.042 -0.257 0.117 -0.34400000000000003 Q 0.18 -0.417 0.264 -0.437 M 0.276 -0.41500000000000004 Q 0.17200000000000001 -0.387 0.125 -0.245 Q 0.10400000000000001 -0.18 0.10400000000000001 -0.128 Q 0.10400000000000001 -0.044 0.161 -0.018000000000000002 Q 0.179 -0.01 0.2 -0.01 Q 0.268 -0.01 0.307 -0.11900000000000001 Q 0.331 -0.186 0.331 -0.243 Q 0.331 -0.313 0.28300000000000003 -0.403 Q 0.281 -0.406 0.276 -0.41500000000000004 Z"/></g></g><g transform="scale(27,27)"><g transform="translate(13.62962962962963,1.620370925925926)"><path fill="rgb(0,153,255)" stroke="none" paint-order="stroke fill markers" d=" M 0.264 -0.437 Q 0.213 -0.537 0.20600000000000002 -0.581 Q 0.20400000000000001 -0.595 0.20400000000000001 -0.608 Q 0.20400000000000001 -0.687 0.276 -0.706 Q 0.295 -0.711 0.318 -0.711 Q 0.34800000000000003 -0.711 0.4 -0.7000000000000001 Q 0.442 -0.6910000000000001 0.448 -0.681 Q 0.452 -0.676 0.452 -0.667 Q 0.452 -0.644 0.43 -0.632 Q 0.422 -0.627 0.41200000000000003 -0.627 Q 0.399 -0.627 0.357 -0.652 Q 0.316 -0.679 0.28600000000000003 -0.679 Q 0.247 -0.679 0.234 -0.649 Q 0.231 -0.641 0.231 -0.633 Q 0.231 -0.588 0.326 -0.46900000000000003 Q 0.374 -0.406 0.388 -0.364 Q 0.4 -0.326 0.4 -0.28300000000000003 Q 0.4 -0.169 0.34 -0.078 Q 0.281 0.012 0.2 0.012 Q 0.113 0.012 0.069 -0.058 Q 0.042 -0.1 0.042 -0.156 Q 0.042 -0.257 0.117 -0.34400000000000003 Q 0.18 -0.417 0.264 -0.437 M 0.276 -0.41500000000000004 Q 0.17200000000000001 -0.387 0.125 -0.245 Q 0.10400000000000001 -0.18 0.10400000000000001 -0.128 Q 0.10400000000000001 -0.044 0.161 -0.018000000000000002 Q 0.179 -0.01 0.2 -0.01 Q 0.268 -0.01 0.307 -0.11900000000000001 Q 0.331 -0.186 0.331 -0.243 Q 0.331 -0.313 0.28300000000000003 -0.403 Q 0.281 -0.406 0.276 -0.41500000000000004 Z"/></g></g></g></g></svg>