<svg version="1.1" xmlns="http://www.w3.org/2000/svg" xmlns:xlink="http://www.w3.org/1999/xlink" width="612" height="269"><defs><clipPath id="isXLRDHluLFf"><path fill="none" stroke="none" d=" M 0 0 L 612 0 L 612 269 L 0 269 L 0 0 Z"/></clipPath></defs><g transform="scale(1,1)" clip-path="url(#isXLRDHluLFf)"><g><path fill="none" stroke="rgb(0,100,0)" paint-order="fill stroke markers" d=" M 188.58151822909358 4.602696682224874 C 144.3296814152938 4.602696682224874 108.45647978224625 55.33506495742547 108.45647978224625 117.9166127394222 C 108.45647978224625 180.49816052141895 144.3296814152938 231.23052879661952 188.58151822909358 231.23052879661952 C 232.83335504289334 231.23052879661952 268.7065566759409 180.49816052141895 268.7065566759409 117.9166127394222 C 268.7065566759409 55.33506495742547 232.83335504289334 4.602696682224874 188.58151822909358 4.602696682224874 Z" stroke-opacity="0.6980392156862745" stroke-linecap="round" stroke-linejoin="round" stroke-miterlimit="10" stroke-width="1.5"/><path fill="none" stroke="rgb(0,100,0)" paint-order="fill stroke markers" d=" M 428.9566335696355 4.602696682224931 C 384.7047967558358 4.602696682224931 348.83159512278826 55.335064957425494 348.83159512278826 117.9166127394222 C 348.83159512278826 180.49816052141892 384.7047967558358 231.23052879661947 428.9566335696355 231.23052879661947 C 473.20847038343527 231.23052879661947 509.0816720164828 180.49816052141892 509.0816720164828 117.9166127394222 C 509.0816720164828 55.335064957425494 473.20847038343527 4.602696682224931 428.9566335696355 4.602696682224931 Z" stroke-opacity="0.6980392156862745" stroke-linecap="round" stroke-linejoin="round" stroke-miterlimit="10" stroke-width="1.5"/><path fill="none" stroke="rgb(0,100,0)" paint-order="fill stroke markers" d=" M 228.64403745251724 37.79157429257481 L 385.5837718634207 39.18342502495642" stroke-opacity="0.6980392156862745" stroke-linecap="round" stroke-linejoin="round" stroke-miterlimit="10" stroke-width="2.5"/><path fill="rgb(0,100,0)" stroke="none" paint-order="stroke fill markers" fill-rule="evenodd" d=" M 402.5831033458822 39.33418692131539 L 385.54608138933094 43.43325789557179 L 385.6214623375104 34.93359215434105 Z" fill-opacity="0.6980392156862745"/><path fill="none" stroke="rgb(0,100,0)" paint-order="fill stroke markers" d=" M 250 119 L 374.00042752775795 119.87943565622524" stroke-opacity="0.6980392156862745" stroke-linecap="round" stroke-linejoin="round" stroke-miterlimit="10" stroke-width="2.5"/><path fill="rgb(0,100,0)" stroke="none" paint-order="stroke fill markers" fill-rule="evenodd" d=" M 391 120 L 373.97028644181427 124.12932877428575 L 374.03056861370163 115.62954253816473 Z" fill-opacity="0.6980392156862745"/><path fill="none" stroke="rgb(0,100,0)" paint-order="fill stroke markers" d=" M 228.64403745251724 198.04165118626963 L 388.3125580029669 198.04165118626963" stroke-opacity="0.6980392156862745" stroke-linecap="round" stroke-linejoin="round" stroke-miterlimit="10" stroke-width="2.5"/><path fill="rgb(0,100,0)" stroke="none" paint-order="stroke fill markers" fill-rule="evenodd" d=" M 405.3125580029669 198.04165118626963 L 388.3125580029669 202.29165118626963 L 388.3125580029669 193.79165118626963 Z" fill-opacity="0.6980392156862745"/><text fill="rgb(0,100,0)" stroke="none" font-family="geogebra-sans-serif, sans-serif" font-size="20px" font-style="normal" font-weight="normal" text-decoration="normal" x="163" y="43" text-anchor="start" dominant-baseline="alphabetic" fill-opacity="1">apple</text><text fill="rgb(0,100,0)" stroke="none" font-family="geogebra-sans-serif, sans-serif" font-size="20px" font-style="normal" font-weight="normal" text-decoration="normal" x="141" y="124" text-anchor="start" dominant-baseline="alphabetic" fill-opacity="1">pineapple</text><text fill="rgb(0,100,0)" stroke="none" font-family="geogebra-sans-serif, sans-serif" font-size="20px" font-style="normal" font-weight="normal" text-decoration="normal" x="161" y="203" text-anchor="start" dominant-baseline="alphabetic" fill-opacity="1">melon</text><text fill="rgb(204,0,0)" stroke="none" font-family="geogebra-sans-serif, sans-serif" font-size="20px" font-style="normal" font-weight="normal" text-decoration="normal" x="687" y="70" text-anchor="start" dominant-baseline="alphabetic" fill-opacity="1">light</text><text fill="rgb(204,0,0)" stroke="none" font-family="geogebra-sans-serif, sans-serif" font-size="20px" font-style="normal" font-weight="normal" text-decoration="normal" x="684" y="172" text-anchor="start" dominant-baseline="alphabetic" fill-opacity="1">check</text><text fill="rgb(204,0,0)" stroke="none" font-family="geogebra-sans-serif, sans-serif" font-size="20px" font-style="normal" font-weight="normal" text-decoration="normal" x="934" y="144" text-anchor="start" dominant-baseline="alphabetic" fill-opacity="1">检查</text><text fill="rgb(204,0,0)" stroke="none" font-family="geogebra-sans-serif, sans-serif" font-size="20px" font-style="normal" font-weight="normal" text-decoration="normal" x="935" y="206" text-anchor="start" dominant-baseline="alphabetic" fill-opacity="1">账单</text><text fill="rgb(204,0,0)" stroke="none" font-family="geogebra-sans-serif, sans-serif" font-size="20px" font-style="normal" font-weight="normal" text-decoration="normal" x="940" y="42" text-anchor="start" dominant-baseline="alphabetic" fill-opacity="1">光</text><text fill="rgb(204,0,0)" stroke="none" font-family="geogebra-sans-serif, sans-serif" font-size="20px" font-style="normal" font-weight="normal" text-decoration="normal" x="932" y="92" text-anchor="start" dominant-baseline="alphabetic" fill-opacity="1">轻的</text><text fill="rgb(0,100,0)" stroke="none" font-family="geogebra-sans-serif, sans-serif" font-size="20px" font-style="normal" font-weight="normal" text-decoration="normal" x="413" y="43" text-anchor="start" dominant-baseline="alphabetic" fill-opacity="1">苹果</text><text fill="rgb(0,100,0)" stroke="none" font-family="geogebra-sans-serif, sans-serif" font-size="20px" font-style="normal" font-weight="normal" text-decoration="normal" x="414" y="123" text-anchor="start" dominant-baseline="alphabetic" fill-opacity="1">菠萝</text><text fill="rgb(0,100,0)" stroke="none" font-family="geogebra-sans-serif, sans-serif" font-size="20px" font-style="normal" font-weight="normal" text-decoration="normal" x="416" y="204" text-anchor="start" dominant-baseline="alphabetic" fill-opacity="1">西瓜</text><g transform="scale(31,31) translate(24.258064516129032,9.548387096774194) scale(0.1,0.1)"><text fill="rgb(204,0,0)" stroke="none" font-family="Serif" font-size="10px" font-style="normal" font-weight="bold" text-decoration="normal" x="0" y="0" text-anchor="start" dominant-baseline="alphabetic">多个结果复杂</text><g transform="scale(10,10) translate(-24.258064516129032,-9.548387096774194)"/></g><g transform="scale(23,23)"><g transform="translate(7.782608695652174,11.248549391304348)"><path fill="rgb(0,0,0)" stroke="none" paint-order="stroke fill markers" d=" M 0.485 -0.41100000000000003 L 0.647 -0.585 Q 0.666 -0.606 0.666 -0.621 Q 0.666 -0.648 0.626 -0.652 Q 0.614 -0.654 0.614 -0.663 Q 0.614 -0.683 0.633 -0.683 L 0.743 -0.68 L 0.744 -0.68 L 0.837 -0.683 L 0.838 -0.683 Q 0.851 -0.683 0.851 -0.672 Q 0.851 -0.655 0.837 -0.653 Q 0.835 -0.652 0.8290000000000001 -0.652 Q 0.759 -0.649 0.7020000000000001 -0.601 Q 0.6890000000000001 -0.59 0.552 -0.442 Q 0.519 -0.406 0.497 -0.384 Q 0.503 -0.368 0.626 -0.075 Q 0.639 -0.044 0.65 -0.038 L 0.651 -0.038 L 0.651 -0.038 L 0.651 -0.038 L 0.651 -0.038 L 0.652 -0.038 L 0.652 -0.037 Q 0.665 -0.032 0.712 -0.031 Q 0.73 -0.031 0.73 -0.019 Q 0.73 0 0.711 0 L 0.601 -0.003 L 0.6 -0.003 L 0.47500000000000003 0 L 0.47400000000000003 0 Q 0.459 0 0.459 -0.012 Q 0.459 -0.028 0.47400000000000003 -0.03 Q 0.47600000000000003 -0.031 0.47900000000000004 -0.031 Q 0.524 -0.036000000000000004 0.536 -0.056 Q 0.537 -0.058 0.537 -0.06 L 0.532 -0.074 L 0.431 -0.313 L 0.341 -0.215 L 0.23900000000000002 -0.107 Q 0.212 -0.078 0.212 -0.062 Q 0.212 -0.035 0.252 -0.031 Q 0.264 -0.031 0.264 -0.02 Q 0.264 0 0.246 0 L 0.135 -0.003 L 0.134 -0.003 L 0.041 0 L 0.04 0 Q 0.027 0 0.027 -0.011 Q 0.027 -0.028 0.041 -0.03 Q 0.043000000000000003 -0.031 0.049 -0.031 Q 0.134 -0.036000000000000004 0.196 -0.10300000000000001 L 0.209 -0.114 L 0.42 -0.341 L 0.302 -0.62 Q 0.293 -0.641 0.278 -0.647 L 0.277 -0.647 L 0.277 -0.647 L 0.277 -0.647 Q 0.262 -0.652 0.227 -0.652 Q 0.20500000000000002 -0.652 0.20400000000000001 -0.663 Q 0.20400000000000001 -0.683 0.222 -0.683 L 0.333 -0.68 L 0.334 -0.68 L 0.459 -0.683 L 0.46 -0.683 Q 0.47500000000000003 -0.683 0.47500000000000003 -0.671 Q 0.47500000000000003 -0.654 0.455 -0.652 Q 0.40900000000000003 -0.648 0.396 -0.623 L 0.401 -0.61 L 0.485 -0.41100000000000003 Z"/></g></g><g transform="scale(23,23)"><g transform="translate(18.347826086956523,11.248549391304348)"><path fill="rgb(0,0,0)" stroke="none" paint-order="stroke fill markers" d=" M 0.597 -0.5690000000000001 L 0.597 -0.5690000000000001 L 0.34900000000000003 -0.28400000000000003 Q 0.341 -0.275 0.335 -0.253 L 0.3 -0.112 Q 0.28600000000000003 -0.053 0.28600000000000003 -0.049 Q 0.28600000000000003 -0.037 0.3 -0.035 Q 0.304 -0.034 0.313 -0.033 Q 0.33 -0.031 0.35100000000000003 -0.031 Q 0.377 -0.031 0.379 -0.02 Q 0.379 0 0.36 0 L 0.233 -0.003 L 0.232 -0.003 L 0.107 0 L 0.106 0 Q 0.092 0 0.092 -0.011 Q 0.092 -0.029 0.105 -0.03 Q 0.109 -0.031 0.11900000000000001 -0.031 Q 0.182 -0.032 0.194 -0.042 L 0.196 -0.044 L 0.197 -0.045 Q 0.20400000000000001 -0.053 0.213 -0.09 L 0.258 -0.272 Q 0.258 -0.277 0.254 -0.289 L 0.131 -0.618 Q 0.123 -0.641 0.11 -0.646 Q 0.096 -0.652 0.058 -0.652 Q 0.036000000000000004 -0.652 0.035 -0.663 Q 0.035 -0.683 0.054 -0.683 L 0.165 -0.68 L 0.166 -0.68 L 0.291 -0.683 L 0.292 -0.683 Q 0.307 -0.683 0.307 -0.672 Q 0.299 -0.653 0.28300000000000003 -0.652 Q 0.224 -0.652 0.224 -0.628 Q 0.224 -0.625 0.23 -0.611 L 0.34 -0.314 L 0.5720000000000001 -0.581 Q 0.599 -0.615 0.599 -0.629 Q 0.599 -0.651 0.5630000000000001 -0.652 Q 0.548 -0.652 0.548 -0.664 Q 0.548 -0.683 0.5670000000000001 -0.683 L 0.662 -0.68 L 0.667 -0.68 L 0.747 -0.683 L 0.749 -0.683 Q 0.762 -0.683 0.762 -0.671 Q 0.762 -0.655 0.748 -0.653 Q 0.747 -0.652 0.742 -0.652 Q 0.677 -0.647 0.625 -0.597 L 0.611 -0.583 L 0.597 -0.5690000000000001 Z"/></g></g></g></g></svg>